<?xml version="1.0" standalone="no"?>
<!DOCTYPE svg PUBLIC "-//W3C//DTD SVG 20010904//EN"
 "http://www.w3.org/TR/2001/REC-SVG-20010904/DTD/svg10.dtd">
<svg version="1.0" xmlns="http://www.w3.org/2000/svg"
 width="512.000000pt" height="512.000000pt" viewBox="0 0 512.000000 512.000000"
 preserveAspectRatio="xMidYMid meet">

<g transform="translate(0.000000,512.000000) scale(0.100000,-0.100000)"
fill="#fc2803" stroke="none">
<path d="M1131 4674 c-173 -30 -376 -113 -531 -217 -101 -69 -265 -229 -340
-335 -113 -159 -198 -355 -237 -549 -25 -123 -25 -404 0 -523 50 -238 140
-431 285 -611 101 -126 2146 -2192 2189 -2211 48 -22 78 -22 126 0 43 19 2088
2085 2189 2211 278 347 374 794 261 1226 -65 251 -192 465 -384 651 -187 179
-406 296 -662 351 -63 14 -128 18 -282 18 -184 0 -208 -2 -308 -28 -297 -74
-507 -208 -773 -491 l-102 -107 -153 154 c-209 209 -336 300 -531 381 -163 67
-269 88 -478 92 -132 2 -209 -1 -269 -12z"/>
</g>
</svg>
