<svg id="svg" version="1.1" xmlns="http://www.w3.org/2000/svg" xmlns:xlink="http://www.w3.org/1999/xlink" width="400" height="400" viewBox="0, 0, 400,400"><g id="svgg"><path id="path0" d="M159.937 87.796 C 159.830 87.904,158.675 88.163,157.371 88.372 C 146.563 90.105,133.196 96.274,125.400 103.125 C 119.676 108.156,114.267 114.119,112.200 117.676 C 111.980 118.055,111.170 119.407,110.400 120.682 C 109.630 121.957,108.392 124.350,107.649 126.000 C 106.906 127.650,106.141 129.313,105.949 129.695 C 105.757 130.077,105.600 130.741,105.600 131.171 C 105.600 131.601,105.441 132.051,105.246 132.171 C 105.051 132.292,104.793 132.887,104.671 133.495 C 104.549 134.103,104.247 135.410,104.000 136.400 C 101.684 145.670,101.676 160.198,103.984 168.200 C 104.238 169.080,104.615 170.385,104.823 171.100 C 105.030 171.815,105.359 172.985,105.553 173.700 C 106.189 176.044,111.624 192.183,112.017 192.895 C 112.227 193.277,112.400 193.941,112.400 194.371 C 112.400 194.801,112.580 195.264,112.800 195.400 C 113.020 195.536,113.200 195.999,113.200 196.429 C 113.200 196.859,113.361 197.523,113.559 197.905 C 113.756 198.287,114.675 201.030,115.600 204.000 C 116.525 206.970,117.444 209.713,117.641 210.095 C 117.839 210.477,118.000 211.141,118.000 211.571 C 118.000 212.001,118.180 212.464,118.400 212.600 C 118.620 212.736,118.800 213.199,118.800 213.629 C 118.800 214.059,118.962 214.723,119.159 215.105 C 119.356 215.487,119.918 217.150,120.407 218.800 C 120.896 220.450,121.434 222.250,121.602 222.800 C 121.770 223.350,122.100 224.520,122.336 225.400 C 122.571 226.280,123.111 228.170,123.534 229.600 C 124.341 232.320,126.957 243.557,127.587 247.000 C 128.456 251.757,128.792 253.541,129.244 255.800 C 129.591 257.534,129.799 270.966,129.994 304.200 C 130.178 335.679,130.400 350.579,130.698 351.400 C 130.937 352.060,131.341 353.320,131.595 354.200 C 132.226 356.383,133.569 360.027,134.102 361.000 C 134.343 361.440,135.046 362.759,135.665 363.932 C 136.628 365.756,137.534 367.186,138.874 369.000 C 148.894 382.562,167.788 394.431,185.000 397.974 C 186.320 398.246,187.760 398.556,188.200 398.663 C 207.259 403.322,235.652 394.381,252.549 378.400 C 259.692 371.644,264.609 364.950,266.799 359.000 C 266.960 358.560,267.281 357.750,267.510 357.200 C 269.824 351.654,269.930 349.499,269.987 306.600 C 270.034 270.457,270.299 258.958,271.198 254.000 C 271.417 252.790,271.771 250.810,271.985 249.600 C 272.568 246.299,273.106 243.585,273.531 241.800 C 273.741 240.920,274.200 238.891,274.552 237.292 C 275.211 234.299,276.588 229.120,278.033 224.200 C 280.078 217.238,281.297 213.347,281.634 212.705 C 281.835 212.323,282.000 211.659,282.000 211.229 C 282.000 210.799,282.180 210.336,282.400 210.200 C 282.620 210.064,282.800 209.601,282.800 209.171 C 282.800 208.741,282.958 208.077,283.151 207.695 C 283.344 207.313,283.716 206.280,283.977 205.400 C 284.239 204.520,284.599 203.440,284.778 203.000 C 285.321 201.665,294.891 172.702,295.286 171.200 C 296.697 165.824,297.065 163.713,297.619 157.800 C 298.041 153.290,297.801 144.101,297.195 141.600 C 297.009 140.830,296.638 139.120,296.372 137.800 C 295.267 132.332,292.130 124.471,289.319 120.128 C 288.490 118.847,287.594 117.392,287.327 116.893 C 285.224 112.972,276.305 103.959,271.000 100.396 C 269.900 99.657,268.910 98.945,268.800 98.814 C 268.307 98.225,262.671 95.083,259.400 93.574 C 253.869 91.022,249.351 89.639,241.269 88.025 C 236.500 87.073,222.987 87.600,220.705 88.827 C 220.323 89.032,219.479 89.200,218.829 89.200 C 218.179 89.200,217.536 89.380,217.400 89.600 C 217.264 89.820,216.724 90.000,216.200 90.000 C 215.676 90.000,215.136 90.180,215.000 90.400 C 214.864 90.620,214.420 90.800,214.014 90.800 C 213.375 90.800,212.326 91.237,209.100 92.850 C 207.818 93.491,206.602 94.197,206.400 94.419 C 206.290 94.540,205.390 95.108,204.400 95.681 C 203.410 96.254,202.167 97.101,201.639 97.562 C 200.541 98.519,199.495 98.634,198.729 97.881 C 196.598 95.789,187.620 90.800,185.986 90.800 C 185.580 90.800,185.136 90.620,185.000 90.400 C 184.864 90.180,184.324 90.000,183.800 90.000 C 183.276 90.000,182.736 89.820,182.600 89.600 C 182.464 89.380,181.821 89.200,181.171 89.200 C 180.521 89.200,179.677 89.032,179.295 88.827 C 177.386 87.800,160.815 86.918,159.937 87.796 M267.237 169.793 C 271.173 172.355,271.055 174.988,266.381 188.800 C 265.521 191.340,261.839 204.375,259.997 211.400 C 259.305 214.040,258.287 217.910,257.735 220.000 C 257.184 222.090,256.588 224.381,256.411 225.090 C 255.498 228.746,253.335 230.951,250.201 231.421 C 244.566 232.266,240.808 227.294,242.625 221.400 C 242.965 220.300,243.396 218.680,243.583 217.800 C 243.771 216.920,244.225 215.120,244.592 213.800 C 244.959 212.480,245.710 209.690,246.260 207.600 C 247.902 201.366,248.832 197.883,249.250 196.400 C 249.467 195.630,249.796 194.460,249.981 193.800 C 250.443 192.149,251.264 189.520,254.262 180.094 C 257.895 168.668,261.326 165.944,267.237 169.793 M245.479 254.038 C 246.676 254.618,247.543 255.443,248.285 256.708 L 249.358 258.539 249.662 271.970 C 249.830 279.356,250.154 288.010,250.384 291.200 C 251.705 309.545,250.604 313.200,243.754 313.200 C 238.202 313.200,237.101 310.822,236.433 297.400 C 236.181 292.340,235.781 284.780,235.544 280.600 C 234.793 267.379,235.154 258.510,236.526 256.438 C 238.527 253.417,242.176 252.439,245.479 254.038 M244.698 337.415 C 247.417 338.551,249.173 341.116,249.191 343.978 C 249.212 347.282,244.120 357.758,240.625 361.600 C 239.724 362.590,238.630 363.850,238.193 364.400 C 229.977 374.748,201.336 383.031,195.153 376.847 C 190.282 371.976,193.999 364.800,201.393 364.800 C 204.471 364.800,211.198 363.566,215.000 362.303 C 221.219 360.239,231.200 353.019,231.200 350.586 C 231.200 350.264,231.345 350.000,231.523 350.000 C 231.876 350.000,233.841 345.907,235.196 342.350 C 236.939 337.772,240.779 335.778,244.698 337.415 " stroke="none" fill="#dc342c" fill-rule="evenodd"></path><path id="path1" d="M161.086 2.638 C 159.719 4.089,157.639 6.204,156.465 7.338 C 153.776 9.935,142.737 21.024,140.581 23.295 C 139.691 24.233,138.387 25.450,137.685 26.000 C 136.156 27.197,135.852 29.200,137.200 29.200 C 137.640 29.200,138.000 29.380,138.000 29.600 C 138.000 29.820,138.320 30.000,138.712 30.000 C 139.103 30.000,139.683 30.360,140.000 30.800 C 140.317 31.240,140.897 31.600,141.288 31.600 C 141.680 31.600,142.000 31.780,142.000 32.000 C 142.000 32.220,142.270 32.400,142.600 32.400 C 142.930 32.400,143.200 32.550,143.200 32.732 C 143.200 32.915,143.695 33.319,144.300 33.630 C 144.905 33.940,145.691 34.511,146.047 34.897 C 146.403 35.284,146.864 35.600,147.071 35.600 C 147.279 35.600,147.798 35.920,148.225 36.311 C 148.651 36.702,149.630 37.466,150.400 38.008 C 151.170 38.550,152.423 39.580,153.183 40.297 C 153.944 41.014,154.792 41.600,155.067 41.600 C 155.342 41.600,156.429 42.513,157.483 43.630 C 158.538 44.746,160.705 46.993,162.300 48.623 C 163.895 50.253,165.200 51.743,165.200 51.934 C 165.200 52.125,165.740 52.846,166.400 53.537 C 167.060 54.228,167.600 54.974,167.600 55.196 C 167.600 55.418,167.738 55.600,167.906 55.600 C 168.074 55.600,168.656 56.320,169.200 57.200 C 169.744 58.080,170.326 58.800,170.494 58.800 C 170.662 58.800,170.800 59.120,170.800 59.512 C 170.800 59.903,171.160 60.483,171.600 60.800 C 172.040 61.117,172.400 61.697,172.400 62.088 C 172.400 62.480,172.580 62.800,172.800 62.800 C 173.020 62.800,173.200 63.160,173.200 63.600 C 173.200 64.040,173.380 64.400,173.600 64.400 C 173.820 64.400,174.000 64.760,174.000 65.200 C 174.000 65.640,174.180 66.000,174.400 66.000 C 174.620 66.000,174.806 66.405,174.813 66.900 C 174.827 67.858,176.107 71.841,176.541 72.275 C 176.684 72.417,176.800 73.213,176.800 74.043 C 176.800 74.873,176.980 75.664,177.200 75.800 C 177.420 75.936,177.600 77.017,177.600 78.203 C 177.600 80.580,178.401 81.808,180.983 83.385 C 185.943 86.416,193.299 91.981,195.599 94.443 C 195.930 94.796,197.048 95.757,198.084 96.578 L 199.969 98.071 202.284 96.226 C 203.558 95.211,205.968 93.170,207.640 91.690 C 209.312 90.211,213.046 87.416,215.938 85.480 C 221.599 81.689,222.126 81.009,221.259 78.611 C 221.006 77.914,220.800 76.771,220.800 76.072 C 220.800 75.372,220.620 74.800,220.400 74.800 C 220.180 74.800,220.000 74.260,220.000 73.600 C 220.000 72.940,219.820 72.400,219.600 72.400 C 219.380 72.400,219.200 71.781,219.200 71.024 C 219.200 70.267,219.020 69.536,218.800 69.400 C 218.580 69.264,218.400 68.803,218.400 68.376 C 218.400 67.949,218.220 67.600,218.000 67.600 C 217.780 67.600,217.600 67.251,217.600 66.824 C 217.600 66.397,217.420 65.936,217.200 65.800 C 216.980 65.664,216.800 65.113,216.800 64.576 C 216.800 64.039,216.620 63.600,216.400 63.600 C 216.180 63.600,216.000 63.240,216.000 62.800 C 216.000 62.360,215.820 62.000,215.600 62.000 C 215.380 62.000,215.200 61.640,215.200 61.200 C 215.200 60.760,215.054 60.400,214.875 60.400 C 214.696 60.400,214.302 59.770,214.000 59.000 C 213.698 58.230,213.304 57.600,213.125 57.600 C 212.946 57.600,212.800 57.240,212.800 56.800 C 212.800 56.360,212.620 56.000,212.400 56.000 C 212.180 56.000,212.000 55.680,212.000 55.288 C 212.000 54.897,211.640 54.317,211.200 54.000 C 210.760 53.683,210.400 53.103,210.400 52.712 C 210.400 52.320,210.220 52.000,210.000 52.000 C 209.780 52.000,209.600 51.640,209.600 51.200 C 209.600 50.760,209.423 50.400,209.208 50.400 C 208.992 50.400,208.704 49.957,208.568 49.416 C 208.433 48.875,208.066 48.221,207.753 47.961 C 207.441 47.702,206.898 46.885,206.547 46.145 C 206.196 45.405,205.749 44.800,205.554 44.800 C 205.359 44.800,205.200 44.558,205.200 44.262 C 205.200 43.966,204.840 43.398,204.400 43.000 C 203.960 42.602,203.600 42.106,203.600 41.898 C 203.600 41.691,203.060 41.017,202.400 40.400 C 201.740 39.783,201.200 39.063,201.200 38.800 C 201.200 38.537,200.660 37.817,200.000 37.200 C 199.340 36.583,198.800 35.919,198.800 35.724 C 198.800 35.528,198.080 34.572,197.200 33.600 C 196.320 32.628,195.600 31.672,195.600 31.476 C 195.600 31.281,195.060 30.617,194.400 30.000 C 193.740 29.383,193.200 28.713,193.200 28.511 C 193.200 28.309,192.235 27.138,191.055 25.911 C 189.875 24.683,188.483 23.076,187.960 22.339 C 187.437 21.603,186.107 20.081,185.005 18.958 C 183.902 17.835,182.370 16.134,181.600 15.179 C 180.830 14.224,177.183 10.418,173.496 6.721 C 165.205 -1.591,165.103 -1.624,161.086 2.638 " stroke="none" fill="#24a34b" fill-rule="evenodd"></path><path id="path2" d="M120.400 68.800 C 120.070 69.013,118.146 69.191,116.124 69.194 C 114.102 69.197,112.336 69.380,112.200 69.600 C 112.064 69.820,110.793 70.000,109.376 70.000 C 107.925 70.000,106.800 70.175,106.800 70.400 C 106.800 70.620,106.001 70.800,105.024 70.800 C 104.047 70.800,103.136 70.980,103.000 71.200 C 102.864 71.420,102.043 71.600,101.176 71.600 C 100.309 71.600,99.600 71.780,99.600 72.000 C 99.600 72.220,98.801 72.400,97.824 72.400 C 96.847 72.400,95.936 72.580,95.800 72.800 C 95.664 73.020,95.023 73.200,94.376 73.200 C 93.729 73.200,93.200 73.380,93.200 73.600 C 93.200 73.820,92.570 74.000,91.800 74.000 C 91.030 74.000,90.400 74.180,90.400 74.400 C 90.400 74.620,89.896 74.800,89.280 74.800 C 88.664 74.800,87.944 75.016,87.680 75.280 C 87.416 75.544,87.200 75.637,87.200 75.486 C 87.200 75.208,83.182 76.525,81.905 77.221 C 81.523 77.430,81.017 77.600,80.780 77.600 C 80.396 77.600,76.117 79.472,74.305 80.432 C 73.923 80.634,73.338 80.800,73.005 80.800 C 72.672 80.800,72.400 80.980,72.400 81.200 C 72.400 81.420,72.164 81.600,71.875 81.600 C 71.587 81.600,70.964 81.960,70.492 82.400 C 70.020 82.840,69.356 83.200,69.017 83.200 C 68.678 83.200,68.400 83.380,68.400 83.600 C 68.400 83.820,68.040 84.000,67.600 84.000 C 67.160 84.000,66.800 84.180,66.800 84.400 C 66.800 84.620,66.564 84.800,66.275 84.800 C 65.987 84.800,65.402 85.115,64.975 85.500 C 64.549 85.885,63.705 86.455,63.100 86.768 C 62.495 87.080,62.000 87.485,62.000 87.668 C 62.000 87.850,61.810 88.000,61.578 88.000 C 61.346 88.000,60.581 88.539,59.878 89.198 C 59.175 89.857,58.457 90.397,58.282 90.398 C 58.107 90.399,57.524 90.805,56.986 91.300 C 54.987 93.141,54.161 93.824,52.798 94.764 C 52.029 95.295,50.140 97.149,48.600 98.885 C 47.060 100.621,45.419 102.451,44.952 102.950 C 44.486 103.450,43.589 104.656,42.958 105.629 C 42.327 106.603,41.537 107.670,41.203 108.000 C 40.868 108.330,40.340 109.095,40.030 109.700 C 39.719 110.305,39.315 110.800,39.132 110.800 C 38.950 110.800,38.800 111.070,38.800 111.400 C 38.800 111.730,38.620 112.000,38.400 112.000 C 38.180 112.000,38.000 112.270,38.000 112.600 C 38.000 112.930,37.820 113.200,37.600 113.200 C 37.380 113.200,37.200 113.470,37.200 113.800 C 37.200 114.130,37.020 114.400,36.800 114.400 C 36.580 114.400,36.400 114.760,36.400 115.200 C 36.400 115.640,36.254 116.000,36.075 116.000 C 35.896 116.000,35.502 116.630,35.200 117.400 C 34.898 118.170,34.538 118.800,34.400 118.800 C 34.262 118.800,33.902 119.430,33.600 120.200 C 33.298 120.970,32.904 121.600,32.725 121.600 C 32.546 121.600,32.400 121.949,32.400 122.376 C 32.400 122.803,32.220 123.264,32.000 123.400 C 31.780 123.536,31.600 124.087,31.600 124.624 C 31.600 125.161,31.420 125.600,31.200 125.600 C 30.980 125.600,30.800 125.949,30.800 126.376 C 30.800 126.803,30.620 127.264,30.400 127.400 C 30.180 127.536,30.000 127.997,30.000 128.424 C 30.000 128.851,29.820 129.200,29.600 129.200 C 29.380 129.200,29.200 129.639,29.200 130.176 C 29.200 130.713,29.020 131.264,28.800 131.400 C 28.580 131.536,28.400 132.166,28.400 132.800 C 28.400 133.434,28.220 134.064,28.000 134.200 C 27.780 134.336,27.600 134.876,27.600 135.400 C 27.600 135.924,27.420 136.464,27.200 136.600 C 26.980 136.736,26.800 137.366,26.800 138.000 C 26.800 138.634,26.646 139.248,26.457 139.365 C 26.269 139.481,25.998 140.527,25.855 141.688 C 25.712 142.850,25.480 144.340,25.340 145.000 C 25.200 145.660,25.008 147.775,24.914 149.700 C 24.820 151.625,24.576 153.200,24.372 153.200 C 23.891 153.200,23.877 169.708,24.356 170.220 C 24.552 170.429,24.809 172.130,24.926 174.000 C 25.196 178.298,25.436 180.154,26.014 182.406 C 26.267 183.393,26.567 184.787,26.681 185.504 C 26.795 186.221,27.049 186.906,27.244 187.027 C 27.440 187.148,27.600 187.766,27.600 188.400 C 27.600 189.034,27.744 189.642,27.921 189.751 C 28.097 189.860,28.490 190.861,28.793 191.975 C 29.096 193.089,29.492 194.000,29.672 194.000 C 29.853 194.000,30.000 194.540,30.000 195.200 C 30.000 195.860,30.180 196.400,30.400 196.400 C 30.620 196.400,30.800 196.839,30.800 197.376 C 30.800 197.913,30.980 198.464,31.200 198.600 C 31.420 198.736,31.600 199.197,31.600 199.624 C 31.600 200.051,31.780 200.400,32.000 200.400 C 32.220 200.400,32.400 200.839,32.400 201.376 C 32.400 201.913,32.580 202.464,32.800 202.600 C 33.020 202.736,33.200 203.197,33.200 203.624 C 33.200 204.051,33.380 204.400,33.600 204.400 C 33.820 204.400,34.000 204.850,34.000 205.400 C 34.000 205.950,34.180 206.400,34.400 206.400 C 34.620 206.400,34.800 206.760,34.800 207.200 C 34.800 207.640,34.980 208.000,35.200 208.000 C 35.420 208.000,35.600 208.439,35.600 208.976 C 35.600 209.513,35.780 210.064,36.000 210.200 C 36.220 210.336,36.400 210.797,36.400 211.224 C 36.400 211.651,36.580 212.000,36.800 212.000 C 37.020 212.000,37.200 212.360,37.200 212.800 C 37.200 213.240,37.380 213.600,37.600 213.600 C 37.820 213.600,38.000 214.140,38.000 214.800 C 38.000 215.460,38.180 216.000,38.400 216.000 C 38.620 216.000,38.800 216.360,38.800 216.800 C 38.800 217.240,38.980 217.600,39.200 217.600 C 39.420 217.600,39.600 218.140,39.600 218.800 C 39.600 219.460,39.780 220.000,40.000 220.000 C 40.220 220.000,40.400 220.450,40.400 221.000 C 40.400 221.550,40.580 222.000,40.800 222.000 C 41.020 222.000,41.200 222.450,41.200 223.000 C 41.200 223.550,41.380 224.000,41.600 224.000 C 41.820 224.000,42.000 224.414,42.000 224.920 C 42.000 225.426,42.216 226.056,42.480 226.320 C 42.744 226.584,42.832 226.800,42.675 226.800 C 42.518 226.800,42.652 227.430,42.974 228.200 C 43.296 228.970,43.442 229.600,43.300 229.600 C 43.157 229.600,43.256 229.816,43.520 230.080 C 43.784 230.344,44.000 230.974,44.000 231.480 C 44.000 231.986,44.180 232.400,44.400 232.400 C 44.620 232.400,44.800 232.702,44.800 233.072 C 44.800 233.824,45.513 236.233,46.049 237.295 C 46.242 237.677,46.400 238.341,46.400 238.771 C 46.400 239.201,46.580 239.664,46.800 239.800 C 47.020 239.936,47.200 240.577,47.200 241.224 C 47.200 241.871,47.380 242.400,47.600 242.400 C 47.820 242.400,48.000 242.940,48.000 243.600 C 48.000 244.260,48.180 244.800,48.400 244.800 C 48.620 244.800,48.800 245.340,48.800 246.000 C 48.800 246.660,48.980 247.200,49.200 247.200 C 49.420 247.200,49.600 247.920,49.600 248.800 C 49.600 249.680,49.780 250.400,50.000 250.400 C 50.220 250.400,50.400 251.019,50.400 251.776 C 50.400 252.533,50.580 253.264,50.800 253.400 C 51.020 253.536,51.200 254.166,51.200 254.800 C 51.200 255.434,51.380 256.064,51.600 256.200 C 51.820 256.336,52.000 256.977,52.000 257.624 C 52.000 258.271,52.180 258.800,52.400 258.800 C 52.620 258.800,52.800 259.599,52.800 260.576 C 52.800 261.553,52.980 262.464,53.200 262.600 C 53.420 262.736,53.600 263.557,53.600 264.424 C 53.600 265.291,53.780 266.000,54.000 266.000 C 54.220 266.000,54.400 266.900,54.400 268.000 C 54.400 269.100,54.580 270.000,54.800 270.000 C 55.020 270.000,55.200 270.799,55.200 271.776 C 55.200 272.753,55.380 273.664,55.600 273.800 C 55.820 273.936,56.000 275.027,56.000 276.224 C 56.000 277.421,56.180 278.400,56.400 278.400 C 56.631 278.400,56.800 279.667,56.800 281.400 C 56.800 283.133,56.969 284.400,57.200 284.400 C 57.428 284.400,57.600 285.592,57.600 287.176 C 57.600 288.703,57.756 290.049,57.946 290.167 C 58.136 290.284,58.429 295.560,58.597 301.890 C 58.765 308.221,58.952 314.030,59.013 314.800 C 59.519 321.209,59.767 323.256,60.060 323.437 C 60.247 323.553,60.400 324.616,60.400 325.800 C 60.400 326.984,60.580 328.064,60.800 328.200 C 61.020 328.336,61.200 329.056,61.200 329.800 C 61.200 330.544,61.380 331.264,61.600 331.400 C 61.820 331.536,62.000 332.256,62.000 333.000 C 62.000 333.744,62.180 334.464,62.400 334.600 C 62.620 334.736,62.800 335.377,62.800 336.024 C 62.800 336.671,62.980 337.200,63.200 337.200 C 63.420 337.200,63.600 337.639,63.600 338.176 C 63.600 338.713,63.780 339.264,64.000 339.400 C 64.220 339.536,64.400 340.087,64.400 340.624 C 64.400 341.161,64.547 341.600,64.728 341.600 C 64.908 341.600,65.300 342.500,65.600 343.600 C 65.900 344.700,66.292 345.600,66.472 345.600 C 66.653 345.600,66.800 345.960,66.800 346.400 C 66.800 346.840,66.980 347.200,67.200 347.200 C 67.420 347.200,67.600 347.560,67.600 348.000 C 67.600 348.440,67.780 348.800,68.000 348.800 C 68.220 348.800,68.400 349.160,68.400 349.600 C 68.400 350.040,68.580 350.400,68.800 350.400 C 69.020 350.400,69.200 350.760,69.200 351.200 C 69.200 351.640,69.380 352.000,69.600 352.000 C 69.820 352.000,70.000 352.360,70.000 352.800 C 70.000 353.240,70.180 353.600,70.400 353.600 C 70.620 353.600,70.800 353.836,70.800 354.125 C 70.800 354.413,71.115 354.998,71.500 355.425 C 71.885 355.851,72.469 356.740,72.797 357.400 C 73.126 358.060,73.711 358.891,74.097 359.247 C 74.484 359.603,74.800 360.188,74.800 360.547 C 74.800 360.906,74.935 361.200,75.100 361.201 C 75.265 361.201,75.932 362.056,76.583 363.101 C 77.233 364.145,77.872 365.090,78.002 365.200 C 78.132 365.310,78.676 366.030,79.210 366.800 C 79.744 367.570,81.220 369.225,82.490 370.478 C 83.761 371.731,84.800 372.880,84.800 373.031 C 84.800 373.389,86.903 375.199,87.319 375.200 C 87.495 375.200,88.881 376.460,90.400 378.000 C 91.919 379.540,93.270 380.800,93.402 380.800 C 93.535 380.800,94.219 381.339,94.922 381.998 C 95.625 382.657,96.337 383.197,96.504 383.198 C 96.671 383.199,97.372 383.740,98.063 384.400 C 98.754 385.060,99.562 385.600,99.859 385.600 C 100.157 385.600,100.400 385.780,100.400 386.000 C 100.400 386.220,100.678 386.400,101.017 386.400 C 101.356 386.400,102.020 386.760,102.492 387.200 C 102.964 387.640,103.587 388.000,103.875 388.000 C 104.164 388.000,104.400 388.180,104.400 388.400 C 104.400 388.620,104.745 388.800,105.167 388.800 C 105.588 388.800,105.993 388.957,106.067 389.149 C 106.272 389.686,110.270 391.600,111.187 391.600 C 111.634 391.600,112.000 391.780,112.000 392.000 C 112.000 392.220,112.360 392.400,112.800 392.400 C 113.240 392.400,113.600 392.580,113.600 392.800 C 113.600 393.020,113.960 393.200,114.400 393.200 C 114.840 393.200,115.200 393.380,115.200 393.600 C 115.200 393.820,115.740 394.000,116.400 394.000 C 117.060 394.000,117.600 394.180,117.600 394.400 C 117.600 394.620,117.960 394.800,118.400 394.800 C 118.840 394.800,119.200 394.980,119.200 395.200 C 119.200 395.420,119.740 395.600,120.400 395.600 C 121.060 395.600,121.600 395.780,121.600 396.000 C 121.600 396.220,122.140 396.400,122.800 396.400 C 123.460 396.400,124.000 396.580,124.000 396.800 C 124.000 397.020,124.619 397.200,125.376 397.200 C 126.133 397.200,126.864 397.380,127.000 397.600 C 127.136 397.820,127.867 398.000,128.624 398.000 C 129.381 398.000,130.000 398.180,130.000 398.400 C 130.000 398.620,130.885 398.800,131.967 398.800 C 133.185 398.800,133.997 398.990,134.100 399.300 C 134.231 399.693,140.828 399.816,165.033 399.874 C 181.955 399.915,195.350 399.798,194.800 399.614 C 194.250 399.430,193.011 399.262,192.046 399.240 C 191.082 399.218,189.642 399.033,188.846 398.828 C 188.051 398.624,186.320 398.237,185.000 397.968 C 167.879 394.485,148.893 382.561,138.874 369.000 C 137.534 367.186,136.628 365.756,135.665 363.932 C 135.046 362.759,134.343 361.440,134.102 361.000 C 133.569 360.027,132.226 356.383,131.595 354.200 C 131.341 353.320,130.937 352.060,130.698 351.400 C 130.400 350.579,130.178 335.679,129.994 304.200 C 129.799 270.966,129.591 257.534,129.244 255.800 C 128.792 253.541,128.456 251.757,127.587 247.000 C 126.957 243.557,124.341 232.320,123.534 229.600 C 123.111 228.170,122.571 226.280,122.336 225.400 C 122.100 224.520,121.770 223.350,121.602 222.800 C 121.434 222.250,120.896 220.450,120.407 218.800 C 119.918 217.150,119.356 215.487,119.159 215.105 C 118.962 214.723,118.800 214.059,118.800 213.629 C 118.800 213.199,118.620 212.736,118.400 212.600 C 118.180 212.464,118.000 212.001,118.000 211.571 C 118.000 211.141,117.839 210.477,117.641 210.095 C 117.444 209.713,116.525 206.970,115.600 204.000 C 114.675 201.030,113.756 198.287,113.559 197.905 C 113.361 197.523,113.200 196.859,113.200 196.429 C 113.200 195.999,113.020 195.536,112.800 195.400 C 112.580 195.264,112.400 194.801,112.400 194.371 C 112.400 193.941,112.227 193.277,112.017 192.895 C 111.624 192.183,106.189 176.044,105.553 173.700 C 105.359 172.985,105.030 171.815,104.823 171.100 C 104.615 170.385,104.238 169.080,103.984 168.200 C 101.676 160.198,101.684 145.670,104.000 136.400 C 104.247 135.410,104.549 134.103,104.671 133.495 C 104.793 132.887,105.051 132.292,105.246 132.171 C 105.441 132.051,105.600 131.601,105.600 131.171 C 105.600 130.741,105.757 130.077,105.949 129.695 C 106.141 129.313,106.906 127.650,107.649 126.000 C 108.392 124.350,109.630 121.957,110.400 120.682 C 111.170 119.407,111.980 118.055,112.200 117.676 C 114.267 114.119,119.676 108.156,125.400 103.125 C 130.392 98.738,140.176 93.305,147.563 90.819 C 151.151 89.611,152.434 89.274,157.000 88.337 C 162.445 87.220,178.660 87.603,179.442 88.868 C 179.555 89.050,180.256 89.200,181.000 89.200 C 181.744 89.200,182.464 89.380,182.600 89.600 C 182.736 89.820,183.276 90.000,183.800 90.000 C 184.324 90.000,184.864 90.180,185.000 90.400 C 185.136 90.620,185.580 90.800,185.986 90.800 C 186.627 90.800,188.066 91.404,190.955 92.888 C 193.764 94.330,197.662 96.834,198.729 97.881 C 199.495 98.634,200.541 98.519,201.639 97.562 C 202.167 97.101,203.410 96.254,204.400 95.681 C 205.390 95.108,206.290 94.540,206.400 94.419 C 206.602 94.197,207.818 93.491,209.100 92.850 C 212.326 91.237,213.375 90.800,214.014 90.800 C 214.420 90.800,214.864 90.620,215.000 90.400 C 215.136 90.180,215.676 90.000,216.200 90.000 C 216.724 90.000,217.264 89.820,217.400 89.600 C 217.536 89.380,218.179 89.200,218.829 89.200 C 219.479 89.200,220.323 89.032,220.705 88.827 C 222.987 87.600,236.500 87.073,241.269 88.025 C 249.351 89.639,253.869 91.022,259.400 93.574 C 262.671 95.083,268.307 98.225,268.800 98.814 C 268.910 98.945,269.900 99.657,271.000 100.396 C 276.305 103.959,285.224 112.972,287.327 116.893 C 287.594 117.392,288.490 118.847,289.319 120.128 C 292.130 124.471,295.267 132.332,296.372 137.800 C 296.638 139.120,297.009 140.830,297.195 141.600 C 297.801 144.101,298.041 153.290,297.619 157.800 C 297.065 163.713,296.697 165.824,295.286 171.200 C 294.891 172.702,285.321 201.665,284.778 203.000 C 284.599 203.440,284.239 204.520,283.977 205.400 C 283.716 206.280,283.344 207.313,283.151 207.695 C 282.958 208.077,282.800 208.741,282.800 209.171 C 282.800 209.601,282.620 210.064,282.400 210.200 C 282.180 210.336,282.000 210.799,282.000 211.229 C 282.000 211.659,281.835 212.323,281.634 212.705 C 281.297 213.347,280.078 217.238,278.033 224.200 C 276.588 229.120,275.211 234.299,274.552 237.292 C 274.200 238.891,273.741 240.920,273.531 241.800 C 273.106 243.585,272.568 246.299,271.985 249.600 C 271.771 250.810,271.417 252.790,271.198 254.000 C 270.299 258.958,270.034 270.457,269.987 306.600 C 269.930 349.328,269.826 351.503,267.564 357.100 C 267.364 357.595,267.043 358.405,266.852 358.900 C 259.793 377.162,235.168 394.795,211.200 398.751 C 209.770 398.987,207.610 399.347,206.400 399.551 C 204.968 399.793,214.936 399.901,234.967 399.861 C 259.181 399.813,265.769 399.694,265.900 399.300 C 266.003 398.990,266.815 398.800,268.033 398.800 C 269.115 398.800,270.000 398.620,270.000 398.400 C 270.000 398.180,270.619 398.000,271.376 398.000 C 272.133 398.000,272.864 397.820,273.000 397.600 C 273.136 397.380,273.867 397.200,274.624 397.200 C 275.381 397.200,276.000 397.020,276.000 396.800 C 276.000 396.580,276.540 396.400,277.200 396.400 C 277.860 396.400,278.400 396.220,278.400 396.000 C 278.400 395.780,278.940 395.600,279.600 395.600 C 280.260 395.600,280.800 395.420,280.800 395.200 C 280.800 394.980,281.160 394.800,281.600 394.800 C 282.040 394.800,282.400 394.620,282.400 394.400 C 282.400 394.180,282.940 394.000,283.600 394.000 C 284.260 394.000,284.800 393.820,284.800 393.600 C 284.800 393.380,285.160 393.200,285.600 393.200 C 286.040 393.200,286.400 393.020,286.400 392.800 C 286.400 392.580,286.760 392.400,287.200 392.400 C 287.640 392.400,288.000 392.220,288.000 392.000 C 288.000 391.780,288.366 391.600,288.813 391.600 C 289.730 391.600,293.728 389.686,293.933 389.149 C 294.007 388.957,294.412 388.800,294.833 388.800 C 295.255 388.800,295.600 388.620,295.600 388.400 C 295.600 388.180,295.836 388.000,296.125 388.000 C 296.413 388.000,297.036 387.640,297.508 387.200 C 297.980 386.760,298.644 386.400,298.983 386.400 C 299.322 386.400,299.600 386.220,299.600 386.000 C 299.600 385.780,299.843 385.600,300.141 385.600 C 300.438 385.600,301.246 385.060,301.937 384.400 C 302.628 383.740,303.348 383.200,303.537 383.200 C 303.726 383.200,304.446 382.660,305.137 382.000 C 305.828 381.340,306.508 380.800,306.648 380.800 C 306.789 380.800,308.129 379.540,309.627 378.000 C 311.125 376.460,312.497 375.200,312.675 375.200 C 313.094 375.199,315.200 373.393,315.200 373.034 C 315.200 372.884,316.460 371.519,318.000 370.000 C 319.540 368.481,320.800 367.084,320.800 366.895 C 320.800 366.706,321.120 366.202,321.511 365.775 C 321.902 365.349,322.661 364.370,323.198 363.600 C 323.734 362.830,324.405 361.962,324.687 361.671 C 324.969 361.381,325.200 360.835,325.200 360.460 C 325.200 360.084,325.560 359.517,326.000 359.200 C 326.440 358.883,326.800 358.393,326.800 358.112 C 326.800 357.830,326.980 357.600,327.200 357.600 C 327.420 357.600,327.600 357.322,327.600 356.983 C 327.600 356.644,327.960 355.980,328.400 355.508 C 328.840 355.036,329.200 354.413,329.200 354.125 C 329.200 353.836,329.380 353.600,329.600 353.600 C 329.820 353.600,330.000 353.240,330.000 352.800 C 330.000 352.360,330.180 352.000,330.400 352.000 C 330.620 352.000,330.800 351.640,330.800 351.200 C 330.800 350.760,330.980 350.400,331.200 350.400 C 331.420 350.400,331.600 350.040,331.600 349.600 C 331.600 349.160,331.780 348.800,332.000 348.800 C 332.220 348.800,332.400 348.440,332.400 348.000 C 332.400 347.560,332.580 347.200,332.800 347.200 C 333.020 347.200,333.200 346.840,333.200 346.400 C 333.200 345.960,333.347 345.600,333.528 345.600 C 333.708 345.600,334.100 344.700,334.400 343.600 C 334.700 342.500,335.092 341.600,335.272 341.600 C 335.453 341.600,335.600 341.161,335.600 340.624 C 335.600 340.087,335.780 339.536,336.000 339.400 C 336.220 339.264,336.400 338.713,336.400 338.176 C 336.400 337.639,336.580 337.200,336.800 337.200 C 337.020 337.200,337.200 336.671,337.200 336.024 C 337.200 335.377,337.380 334.736,337.600 334.600 C 337.820 334.464,338.000 333.744,338.000 333.000 C 338.000 332.256,338.180 331.536,338.400 331.400 C 338.620 331.264,338.800 330.533,338.800 329.776 C 338.800 329.019,338.980 328.400,339.200 328.400 C 339.421 328.400,339.600 327.360,339.600 326.080 C 339.600 324.804,339.764 323.589,339.965 323.380 C 340.548 322.772,340.796 319.077,341.221 304.600 C 341.440 297.120,341.795 290.687,342.010 290.305 C 342.224 289.923,342.400 288.438,342.400 287.005 C 342.400 285.535,342.574 284.400,342.800 284.400 C 343.031 284.400,343.200 283.133,343.200 281.400 C 343.200 279.667,343.369 278.400,343.600 278.400 C 343.820 278.400,344.000 277.421,344.000 276.224 C 344.000 275.027,344.180 273.936,344.400 273.800 C 344.620 273.664,344.800 272.753,344.800 271.776 C 344.800 270.799,344.980 270.000,345.200 270.000 C 345.420 270.000,345.600 269.100,345.600 268.000 C 345.600 266.900,345.780 266.000,346.000 266.000 C 346.220 266.000,346.400 265.291,346.400 264.424 C 346.400 263.557,346.580 262.736,346.800 262.600 C 347.020 262.464,347.200 261.553,347.200 260.576 C 347.200 259.599,347.380 258.800,347.600 258.800 C 347.820 258.800,348.000 258.271,348.000 257.624 C 348.000 256.977,348.180 256.336,348.400 256.200 C 348.620 256.064,348.800 255.434,348.800 254.800 C 348.800 254.166,348.980 253.536,349.200 253.400 C 349.420 253.264,349.600 252.533,349.600 251.776 C 349.600 251.019,349.780 250.400,350.000 250.400 C 350.220 250.400,350.400 249.680,350.400 248.800 C 350.400 247.920,350.580 247.200,350.800 247.200 C 351.020 247.200,351.200 246.660,351.200 246.000 C 351.200 245.340,351.380 244.800,351.600 244.800 C 351.820 244.800,352.000 244.260,352.000 243.600 C 352.000 242.940,352.180 242.400,352.400 242.400 C 352.620 242.400,352.800 241.871,352.800 241.224 C 352.800 240.577,352.980 239.936,353.200 239.800 C 353.420 239.664,353.600 239.124,353.600 238.600 C 353.600 238.076,353.780 237.536,354.000 237.400 C 354.220 237.264,354.400 236.724,354.400 236.200 C 354.400 235.676,354.580 235.136,354.800 235.000 C 355.020 234.864,355.200 234.223,355.200 233.576 C 355.200 232.929,355.380 232.400,355.600 232.400 C 355.820 232.400,356.000 231.986,356.000 231.480 C 356.000 230.974,356.149 230.389,356.330 230.180 C 356.512 229.971,356.905 228.990,357.202 228.000 C 357.500 227.010,357.884 226.011,358.055 225.780 C 358.225 225.549,358.486 224.604,358.634 223.680 C 358.781 222.756,359.059 222.000,359.251 222.000 C 359.443 222.000,359.600 221.550,359.600 221.000 C 359.600 220.450,359.780 220.000,360.000 220.000 C 360.220 220.000,360.400 219.460,360.400 218.800 C 360.400 218.140,360.580 217.600,360.800 217.600 C 361.020 217.600,361.200 217.240,361.200 216.800 C 361.200 216.360,361.380 216.000,361.600 216.000 C 361.820 216.000,362.000 215.460,362.000 214.800 C 362.000 214.140,362.180 213.600,362.400 213.600 C 362.620 213.600,362.800 213.240,362.800 212.800 C 362.800 212.360,362.980 212.000,363.200 212.000 C 363.420 212.000,363.600 211.728,363.600 211.395 C 363.600 211.062,363.808 210.387,364.062 209.895 C 365.033 208.018,365.200 207.593,365.200 207.005 C 365.200 206.672,365.380 206.400,365.600 206.400 C 365.820 206.400,366.000 206.045,366.000 205.612 C 366.000 205.179,366.360 204.183,366.800 203.400 C 367.240 202.617,367.600 201.621,367.600 201.188 C 367.600 200.755,367.780 200.400,368.000 200.400 C 368.220 200.400,368.400 200.051,368.400 199.624 C 368.400 199.197,368.580 198.736,368.800 198.600 C 369.020 198.464,369.200 197.913,369.200 197.376 C 369.200 196.839,369.380 196.400,369.600 196.400 C 369.820 196.400,370.000 195.860,370.000 195.200 C 370.000 194.540,370.147 194.000,370.328 194.000 C 370.508 194.000,370.900 193.100,371.200 192.000 C 371.500 190.900,371.892 190.000,372.072 190.000 C 372.253 190.000,372.400 189.381,372.400 188.624 C 372.400 187.867,372.560 187.148,372.756 187.027 C 372.951 186.906,373.205 186.221,373.319 185.504 C 373.432 184.787,373.740 183.480,374.001 182.600 C 374.620 180.517,375.144 176.097,375.175 172.700 C 375.189 171.183,375.375 170.000,375.600 170.000 C 375.854 170.000,376.000 166.933,376.000 161.600 C 376.000 156.267,375.854 153.200,375.600 153.200 C 375.370 153.200,375.190 151.884,375.176 150.100 C 375.163 148.395,374.975 146.100,374.758 145.000 C 374.541 143.900,374.198 142.190,373.997 141.200 C 373.795 140.210,373.513 138.813,373.369 138.095 C 373.225 137.377,372.949 136.692,372.754 136.571 C 372.559 136.451,372.400 135.823,372.400 135.176 C 372.400 134.529,372.220 134.000,372.000 134.000 C 371.780 134.000,371.600 133.471,371.600 132.824 C 371.600 132.177,371.420 131.536,371.200 131.400 C 370.980 131.264,370.800 130.713,370.800 130.176 C 370.800 129.639,370.620 129.200,370.400 129.200 C 370.180 129.200,370.000 128.750,370.000 128.200 C 370.000 127.650,369.820 127.200,369.600 127.200 C 369.380 127.200,369.200 126.840,369.200 126.400 C 369.200 125.960,369.020 125.600,368.800 125.600 C 368.580 125.600,368.400 125.161,368.400 124.624 C 368.400 124.087,368.220 123.536,368.000 123.400 C 367.780 123.264,367.600 122.803,367.600 122.376 C 367.600 121.949,367.420 121.600,367.200 121.600 C 366.980 121.600,366.800 121.255,366.800 120.833 C 366.800 120.412,366.665 120.007,366.500 119.933 C 366.124 119.766,364.825 117.636,364.529 116.700 C 364.407 116.315,364.148 116.000,363.953 116.000 C 363.759 116.000,363.600 115.640,363.600 115.200 C 363.600 114.760,363.420 114.400,363.200 114.400 C 362.980 114.400,362.800 114.130,362.800 113.800 C 362.800 113.470,362.620 113.200,362.400 113.200 C 362.180 113.200,362.000 112.930,362.000 112.600 C 362.000 112.270,361.820 112.000,361.600 112.000 C 361.380 112.000,361.200 111.730,361.200 111.400 C 361.200 111.070,361.050 110.800,360.868 110.800 C 360.685 110.800,360.280 110.305,359.968 109.700 C 359.366 108.534,359.240 108.352,357.993 106.839 C 357.557 106.310,357.200 105.763,357.200 105.622 C 357.200 105.482,356.615 104.743,355.900 103.982 C 355.185 103.220,354.184 102.058,353.676 101.398 C 352.305 99.621,347.181 94.400,346.808 94.400 C 346.516 94.400,345.482 93.553,342.914 91.209 C 342.427 90.764,341.934 90.400,341.819 90.400 C 341.608 90.400,340.360 89.427,339.384 88.500 C 339.094 88.225,338.664 88.000,338.429 88.000 C 338.193 88.000,338.000 87.850,338.000 87.668 C 338.000 87.485,337.505 87.081,336.900 86.770 C 336.295 86.460,335.509 85.889,335.153 85.503 C 334.797 85.116,334.212 84.800,333.853 84.800 C 333.494 84.800,333.200 84.620,333.200 84.400 C 333.200 84.180,332.840 84.000,332.400 84.000 C 331.960 84.000,331.600 83.820,331.600 83.600 C 331.600 83.380,331.240 83.200,330.800 83.200 C 330.360 83.200,330.000 83.047,330.000 82.860 C 330.000 82.673,328.875 81.971,327.500 81.301 C 322.770 78.995,319.650 77.600,319.220 77.600 C 318.983 77.600,318.477 77.430,318.095 77.221 C 316.818 76.525,312.800 75.208,312.800 75.486 C 312.800 75.637,312.584 75.544,312.320 75.280 C 312.056 75.016,311.336 74.800,310.720 74.800 C 310.104 74.800,309.600 74.620,309.600 74.400 C 309.600 74.180,308.970 74.000,308.200 74.000 C 307.430 74.000,306.800 73.820,306.800 73.600 C 306.800 73.380,306.271 73.200,305.624 73.200 C 304.977 73.200,304.336 73.020,304.200 72.800 C 304.064 72.580,303.153 72.400,302.176 72.400 C 301.199 72.400,300.400 72.220,300.400 72.000 C 300.400 71.780,299.691 71.600,298.824 71.600 C 297.957 71.600,297.136 71.420,297.000 71.200 C 296.864 70.980,295.953 70.800,294.976 70.800 C 293.999 70.800,293.200 70.620,293.200 70.400 C 293.200 70.176,292.093 70.000,290.680 70.000 C 289.294 70.000,287.989 69.832,287.780 69.627 C 287.013 68.873,264.559 68.081,263.857 68.783 C 263.627 69.013,261.769 69.200,259.720 69.200 C 257.507 69.200,256.000 69.362,256.000 69.600 C 256.000 69.822,254.933 70.000,253.600 70.000 C 252.267 70.000,251.200 70.178,251.200 70.400 C 251.200 70.620,250.300 70.800,249.200 70.800 C 248.100 70.800,247.200 70.980,247.200 71.200 C 247.200 71.420,246.581 71.600,245.824 71.600 C 245.067 71.600,244.336 71.780,244.200 72.000 C 244.064 72.220,243.333 72.400,242.576 72.400 C 241.819 72.400,241.200 72.580,241.200 72.800 C 241.200 73.020,240.570 73.200,239.800 73.200 C 239.030 73.200,238.400 73.380,238.400 73.600 C 238.400 73.820,237.950 74.000,237.400 74.000 C 236.850 74.000,236.400 74.180,236.400 74.400 C 236.400 74.620,236.009 74.800,235.531 74.800 C 234.078 74.800,225.996 78.159,225.667 78.900 C 225.593 79.065,225.188 79.200,224.767 79.200 C 224.345 79.200,224.000 79.380,224.000 79.600 C 224.000 79.820,223.716 80.000,223.369 80.000 C 223.021 80.000,222.067 80.675,221.248 81.500 C 220.428 82.325,217.427 84.563,214.579 86.474 C 211.731 88.384,208.050 91.180,206.400 92.686 C 204.750 94.193,202.631 96.023,201.691 96.753 L 199.982 98.082 198.091 96.583 C 197.051 95.759,195.930 94.796,195.599 94.443 C 193.292 91.973,185.917 86.397,180.957 83.371 C 180.209 82.914,179.087 81.969,178.463 81.271 C 177.839 80.572,177.045 80.000,176.698 80.000 C 176.351 80.000,176.007 79.864,175.933 79.698 C 175.577 78.891,166.001 74.800,164.469 74.800 C 163.991 74.800,163.600 74.620,163.600 74.400 C 163.600 74.180,163.150 74.000,162.600 74.000 C 162.050 74.000,161.600 73.820,161.600 73.600 C 161.600 73.380,160.970 73.200,160.200 73.200 C 159.430 73.200,158.800 73.020,158.800 72.800 C 158.800 72.580,158.170 72.400,157.400 72.400 C 156.630 72.400,156.000 72.220,156.000 72.000 C 156.000 71.780,155.280 71.600,154.400 71.600 C 153.520 71.600,152.800 71.420,152.800 71.200 C 152.800 70.980,151.900 70.800,150.800 70.800 C 149.700 70.800,148.800 70.620,148.800 70.400 C 148.800 70.178,147.733 70.000,146.400 70.000 C 145.067 70.000,144.000 69.822,144.000 69.600 C 144.000 69.362,142.475 69.200,140.224 69.200 C 138.137 69.200,136.337 69.021,136.200 68.800 C 135.877 68.277,121.209 68.277,120.400 68.800 " stroke="none" fill="#b42424" fill-rule="evenodd"></path><path id="path3" d="M259.780 170.227 C 257.862 171.475,256.944 173.298,254.964 179.800 C 254.159 182.440,253.164 185.665,252.751 186.966 C 252.338 188.267,252.000 189.575,252.000 189.871 C 252.000 190.168,251.838 190.723,251.639 191.105 C 251.440 191.487,251.056 192.610,250.785 193.600 C 249.856 196.990,249.497 198.201,249.149 199.119 C 248.957 199.624,248.800 200.469,248.800 200.995 C 248.800 201.522,248.620 202.064,248.400 202.200 C 248.180 202.336,248.000 203.056,248.000 203.800 C 248.000 204.544,247.820 205.264,247.600 205.400 C 247.380 205.536,247.200 206.166,247.200 206.800 C 247.200 207.434,247.020 208.064,246.800 208.200 C 246.580 208.336,246.400 208.966,246.400 209.600 C 246.400 210.234,246.220 210.864,246.000 211.000 C 245.780 211.136,245.600 211.856,245.600 212.600 C 245.600 213.344,245.420 214.064,245.200 214.200 C 244.980 214.336,244.800 215.067,244.800 215.824 C 244.800 216.581,244.620 217.200,244.400 217.200 C 244.180 217.200,244.000 217.819,244.000 218.576 C 244.000 219.333,243.820 220.064,243.600 220.200 C 243.380 220.336,243.200 220.950,243.200 221.564 C 243.200 222.178,242.998 223.261,242.750 223.971 C 242.417 224.926,242.417 225.377,242.750 225.710 C 242.998 225.958,243.200 226.502,243.200 226.920 C 243.200 227.337,243.780 228.221,244.489 228.883 C 247.906 232.075,252.949 231.345,254.747 227.400 C 255.047 226.740,255.452 225.887,255.647 225.505 C 255.841 225.123,256.000 224.369,256.000 223.829 C 256.000 223.289,256.180 222.736,256.400 222.600 C 256.620 222.464,256.800 221.744,256.800 221.000 C 256.800 220.256,256.980 219.536,257.200 219.400 C 257.420 219.264,257.600 218.634,257.600 218.000 C 257.600 217.366,257.780 216.736,258.000 216.600 C 258.220 216.464,258.400 215.744,258.400 215.000 C 258.400 214.256,258.580 213.536,258.800 213.400 C 259.020 213.264,259.200 212.634,259.200 212.000 C 259.200 211.366,259.360 210.748,259.556 210.627 C 259.751 210.506,260.021 209.776,260.156 209.004 C 260.290 208.232,260.510 206.968,260.644 206.196 C 260.779 205.424,261.049 204.694,261.244 204.573 C 261.440 204.452,261.600 203.922,261.600 203.395 C 261.600 202.869,261.764 202.024,261.965 201.519 C 262.166 201.013,262.806 198.800,263.389 196.600 C 263.971 194.400,264.595 192.150,264.775 191.600 C 264.955 191.050,265.683 188.710,266.393 186.400 C 267.102 184.090,267.844 181.887,268.041 181.505 C 268.239 181.123,268.400 180.459,268.400 180.029 C 268.400 179.599,268.580 179.136,268.800 179.000 C 269.742 178.418,269.261 172.934,268.152 171.616 C 265.926 168.971,262.569 168.414,259.780 170.227 M239.794 254.378 C 235.901 255.957,235.345 260.569,236.417 282.400 C 236.628 286.690,236.973 294.085,237.184 298.833 C 237.664 309.617,238.559 311.867,242.633 312.528 C 248.204 313.432,250.686 310.082,250.243 302.252 C 249.405 287.417,249.116 280.669,248.871 270.200 C 248.569 257.279,248.472 256.824,245.619 254.901 C 244.230 253.965,241.432 253.713,239.794 254.378 M239.695 338.014 C 237.876 338.745,236.437 340.652,235.413 343.689 C 233.976 347.948,230.100 353.968,227.763 355.569 C 227.034 356.068,225.923 356.955,225.293 357.539 C 223.976 358.758,222.440 359.733,220.300 360.706 C 219.475 361.082,218.800 361.526,218.800 361.694 C 218.800 361.862,218.361 362.000,217.824 362.000 C 217.287 362.000,216.736 362.180,216.600 362.400 C 216.464 362.620,215.913 362.800,215.376 362.800 C 214.839 362.800,214.400 362.960,214.400 363.156 C 214.400 363.352,213.815 363.612,213.100 363.734 C 212.385 363.856,210.900 364.157,209.800 364.404 C 208.700 364.650,206.000 365.006,203.800 365.194 C 198.056 365.687,197.283 365.917,195.547 367.653 C 192.699 370.501,193.396 375.942,196.800 377.440 C 198.809 378.325,200.527 378.768,200.944 378.511 C 201.179 378.366,203.268 378.108,205.586 377.939 C 210.966 377.547,213.303 377.210,213.780 376.759 C 213.989 376.562,214.756 376.400,215.485 376.400 C 216.214 376.400,217.168 376.220,217.605 376.000 C 218.042 375.780,218.758 375.420,219.195 375.200 C 219.632 374.980,220.352 374.800,220.795 374.800 C 221.238 374.800,221.600 374.620,221.600 374.400 C 221.600 374.180,221.955 374.000,222.388 374.000 C 222.821 374.000,223.856 373.622,224.688 373.160 C 225.520 372.698,226.920 371.933,227.800 371.460 C 228.680 370.987,229.490 370.510,229.600 370.400 C 229.710 370.290,230.272 369.930,230.848 369.600 C 233.326 368.182,238.711 363.211,240.800 360.413 C 241.350 359.676,242.025 358.845,242.300 358.565 C 242.575 358.286,242.800 357.964,242.800 357.850 C 242.800 357.736,243.471 356.508,244.291 355.121 C 246.901 350.707,248.614 345.231,248.208 342.600 C 247.642 338.932,243.271 336.578,239.695 338.014 " stroke="none" fill="#ec5c5b" fill-rule="evenodd"></path><path id="path4" d="M260.903 168.832 C 258.002 169.703,257.056 171.308,254.262 180.094 C 251.264 189.520,250.443 192.149,249.981 193.800 C 249.796 194.460,249.467 195.630,249.250 196.400 C 248.832 197.883,247.902 201.366,246.260 207.600 C 245.710 209.690,244.959 212.480,244.592 213.800 C 244.225 215.120,243.771 216.920,243.583 217.800 C 243.396 218.680,242.965 220.300,242.625 221.400 C 240.808 227.294,244.566 232.266,250.201 231.421 C 253.335 230.951,255.498 228.746,256.411 225.090 C 256.588 224.381,257.184 222.090,257.735 220.000 C 258.287 217.910,259.305 214.040,259.997 211.400 C 261.839 204.375,265.521 191.340,266.381 188.800 C 270.330 177.131,270.730 174.952,269.422 172.264 C 268.063 169.472,264.095 167.873,260.903 168.832 M265.972 169.786 C 268.702 171.197,270.731 177.807,268.800 179.000 C 268.580 179.136,268.400 179.599,268.400 180.029 C 268.400 180.459,268.239 181.123,268.041 181.505 C 267.844 181.887,267.102 184.090,266.393 186.400 C 265.683 188.710,264.955 191.050,264.775 191.600 C 264.595 192.150,263.971 194.400,263.389 196.600 C 262.806 198.800,262.166 201.013,261.965 201.519 C 261.764 202.024,261.600 202.869,261.600 203.395 C 261.600 203.922,261.440 204.452,261.244 204.573 C 261.049 204.694,260.779 205.424,260.644 206.196 C 260.510 206.968,260.290 208.232,260.156 209.004 C 260.021 209.776,259.751 210.506,259.556 210.627 C 259.360 210.748,259.200 211.366,259.200 212.000 C 259.200 212.634,259.020 213.264,258.800 213.400 C 258.580 213.536,258.400 214.256,258.400 215.000 C 258.400 215.744,258.220 216.464,258.000 216.600 C 257.780 216.736,257.600 217.366,257.600 218.000 C 257.600 218.634,257.420 219.264,257.200 219.400 C 256.980 219.536,256.800 220.256,256.800 221.000 C 256.800 221.744,256.620 222.464,256.400 222.600 C 256.180 222.736,256.000 223.289,256.000 223.829 C 256.000 224.369,255.841 225.123,255.647 225.505 C 255.452 225.887,255.047 226.740,254.747 227.400 C 252.949 231.345,247.906 232.075,244.489 228.883 C 243.780 228.221,243.200 227.337,243.200 226.920 C 243.200 226.502,242.998 225.958,242.750 225.710 C 242.417 225.377,242.417 224.926,242.750 223.971 C 242.998 223.261,243.200 222.178,243.200 221.564 C 243.200 220.950,243.380 220.336,243.600 220.200 C 243.820 220.064,244.000 219.333,244.000 218.576 C 244.000 217.819,244.180 217.200,244.400 217.200 C 244.620 217.200,244.800 216.581,244.800 215.824 C 244.800 215.067,244.980 214.336,245.200 214.200 C 245.420 214.064,245.600 213.344,245.600 212.600 C 245.600 211.856,245.780 211.136,246.000 211.000 C 246.220 210.864,246.400 210.234,246.400 209.600 C 246.400 208.966,246.580 208.336,246.800 208.200 C 247.020 208.064,247.200 207.434,247.200 206.800 C 247.200 206.166,247.380 205.536,247.600 205.400 C 247.820 205.264,248.000 204.544,248.000 203.800 C 248.000 203.056,248.180 202.336,248.400 202.200 C 248.620 202.064,248.800 201.522,248.800 200.995 C 248.800 200.469,248.957 199.624,249.149 199.119 C 249.497 198.201,249.856 196.990,250.785 193.600 C 251.056 192.610,251.440 191.487,251.639 191.105 C 251.838 190.723,252.000 190.168,252.000 189.871 C 252.000 189.575,252.338 188.267,252.751 186.966 C 253.164 185.665,254.159 182.440,254.964 179.800 C 257.898 170.167,261.092 167.262,265.972 169.786 M239.326 253.977 C 235.241 255.832,234.453 261.379,235.544 280.600 C 235.781 284.780,236.181 292.340,236.433 297.400 C 237.101 310.822,238.202 313.200,243.754 313.200 C 250.604 313.200,251.705 309.545,250.384 291.200 C 250.154 288.010,249.830 279.356,249.662 271.970 L 249.358 258.539 248.285 256.708 C 246.415 253.519,242.779 252.410,239.326 253.977 M245.619 254.901 C 248.472 256.824,248.569 257.279,248.871 270.200 C 249.116 280.669,249.405 287.417,250.243 302.252 C 250.686 310.082,248.204 313.432,242.633 312.528 C 238.559 311.867,237.664 309.617,237.184 298.833 C 236.973 294.085,236.628 286.690,236.417 282.400 C 235.980 273.489,235.892 260.906,236.252 258.727 C 236.900 254.809,242.244 252.627,245.619 254.901 M239.509 337.349 C 237.670 338.165,236.094 339.992,235.196 342.350 C 233.841 345.907,231.876 350.000,231.523 350.000 C 231.345 350.000,231.200 350.264,231.200 350.586 C 231.200 353.019,221.219 360.239,215.000 362.303 C 211.198 363.566,204.471 364.800,201.393 364.800 C 193.999 364.800,190.282 371.976,195.153 376.847 C 197.275 378.969,198.945 379.308,204.673 378.782 C 218.486 377.512,232.585 371.463,238.193 364.400 C 238.630 363.850,239.724 362.590,240.625 361.600 C 244.120 357.758,249.212 347.282,249.191 343.978 C 249.160 339.070,243.840 335.428,239.509 337.349 M245.161 338.433 C 249.483 341.067,249.181 346.850,244.291 355.121 C 243.471 356.508,242.800 357.736,242.800 357.850 C 242.800 357.964,242.575 358.286,242.300 358.565 C 242.025 358.845,241.350 359.676,240.800 360.413 C 238.711 363.211,233.326 368.182,230.848 369.600 C 230.272 369.930,229.710 370.290,229.600 370.400 C 229.490 370.510,228.680 370.987,227.800 371.460 C 226.920 371.933,225.520 372.698,224.688 373.160 C 223.856 373.622,222.821 374.000,222.388 374.000 C 221.955 374.000,221.600 374.180,221.600 374.400 C 221.600 374.620,221.238 374.800,220.795 374.800 C 220.352 374.800,219.632 374.980,219.195 375.200 C 218.758 375.420,218.042 375.780,217.605 376.000 C 217.168 376.220,216.214 376.400,215.485 376.400 C 214.756 376.400,213.989 376.562,213.780 376.759 C 213.303 377.210,210.966 377.547,205.586 377.939 C 203.268 378.108,201.179 378.366,200.944 378.511 C 200.331 378.890,196.301 377.501,195.400 376.600 C 194.683 375.883,194.006 374.226,193.929 373.000 C 193.582 367.477,195.578 365.899,203.800 365.194 C 206.000 365.006,208.700 364.650,209.800 364.404 C 210.900 364.157,212.385 363.856,213.100 363.734 C 213.815 363.612,214.400 363.352,214.400 363.156 C 214.400 362.960,214.839 362.800,215.376 362.800 C 215.913 362.800,216.464 362.620,216.600 362.400 C 216.736 362.180,217.287 362.000,217.824 362.000 C 218.361 362.000,218.800 361.862,218.800 361.694 C 218.800 361.526,219.475 361.082,220.300 360.706 C 222.440 359.733,223.976 358.758,225.293 357.539 C 225.923 356.955,227.034 356.068,227.763 355.569 C 230.100 353.968,233.976 347.948,235.413 343.689 C 237.242 338.267,241.300 336.079,245.161 338.433 " stroke="none" fill="#eb5150" fill-rule="evenodd"></path></g></svg>