<?xml version="1.0" standalone="no"?>
<!DOCTYPE svg PUBLIC "-//W3C//DTD SVG 20010904//EN"
 "http://www.w3.org/TR/2001/REC-SVG-20010904/DTD/svg10.dtd">
<svg version="1.0" xmlns="http://www.w3.org/2000/svg"
 width="512.000000pt" height="512.000000pt" viewBox="0 0 512.000000 512.000000"
 preserveAspectRatio="xMidYMid meet">

<g transform="translate(0.000000,512.000000) scale(0.100000,-0.100000)"
fill="#dc342c" stroke="none">
<path d="M826 4675 c-182 -50 -332 -202 -381 -385 -22 -81 -22 -1149 0 -1230
49 -185 201 -338 381 -384 92 -24 1146 -24 1238 0 183 47 333 197 380 380 24
92 24 1146 0 1238 -46 181 -198 332 -384 381 -78 21 -1159 20 -1234 0z"/>
<path d="M3056 4675 c-181 -50 -334 -203 -380 -380 -23 -88 -24 -1152 -1
-1240 47 -179 201 -333 380 -380 89 -23 1148 -22 1239 1 188 48 346 213 386
404 8 39 10 222 8 625 -3 563 -3 571 -25 630 -64 169 -202 295 -373 340 -78
21 -1159 20 -1234 0z"/>
<path d="M815 2441 c-185 -53 -336 -214 -375 -401 -8 -39 -10 -222 -8 -625 3
-560 3 -571 25 -628 58 -153 177 -272 328 -330 59 -22 67 -22 630 -25 405 -2
586 0 625 8 191 40 356 198 404 386 23 91 24 1150 1 1239 -47 180 -200 333
-380 380 -50 13 -148 15 -625 14 -504 0 -572 -2 -625 -18z"/>
<path d="M3051 2444 c-176 -47 -330 -202 -376 -379 -23 -89 -22 -1148 1 -1239
46 -180 199 -332 384 -381 81 -22 1149 -22 1230 0 170 45 309 172 373 340 22
59 22 67 25 630 2 403 0 586 -8 625 -40 189 -198 356 -385 405 -85 22 -1162
21 -1244 -1z"/>
</g>
</svg>
